# xmcd
#
# Track frame offsets:
#	151
#	35743
#	80398
#	109349
#	147054
#	168992
#	178628
#	239910
#	257617
#	296625
#
# Disc length: 4701 seconds
#
# Revision: 0
# Processed by: cddbd v1.5.2PL0 Copyright (c) Steve Scherf et al.
# Submitted via: EasyCDDAExtractor 16.0.6.1
#
DISCID=90125b0a
DTITLE=Carlos Santana - Guitar master
DYEAR=1900
DGENRE=
TTITLE0=Evil Ways (live)
TTITLE1=Jings
TTITLE2=Soul Sacrifice
TTITLE3=Jammim Home
TTITLE4=Travelin Blues
TTITLE5=let's get ourselves together
TTITLE6=El Corazon manda
TTITLE7=As the Years go by
TTITLE8=Santana Jam
TTITLE9=La Puesta del sol
EXTD=
EXTT0=
EXTT1=
EXTT2=
EXTT3=
EXTT4=
EXTT5=
EXTT6=
EXTT7=
EXTT8=
EXTT9=
PLAYORDER=
